<mxfile host="app.diagrams.net" modified="2022-04-29T03:02:02.064Z" agent="5.0 (Windows NT 10.0; Win64; x64) AppleWebKit/537.36 (KHTML, like Gecko) Chrome/101.0.4951.41 Safari/537.36" etag="H7PfAHjTBP9agoUcyhfN" version="17.4.6" type="github">
  <diagram id="X0QurGfXTFE3HsmTJtBx" name="Page-1">
    <mxGraphModel dx="1038" dy="539" grid="1" gridSize="10" guides="1" tooltips="1" connect="1" arrows="1" fold="1" page="1" pageScale="1" pageWidth="827" pageHeight="1169" math="0" shadow="0">
      <root>
        <mxCell id="0" />
        <mxCell id="1" parent="0" />
        <mxCell id="x_Q-YRtAwNlrOQmXZMiU-1" value=":Object" style="shape=umlLifeline;perimeter=lifelinePerimeter;container=1;collapsible=0;recursiveResize=0;rounded=0;shadow=0;strokeWidth=1;fillColor=#ffe6cc;strokeColor=#d79b00;" parent="1" vertex="1">
          <mxGeometry x="120" y="80" width="220" height="300" as="geometry" />
        </mxCell>
        <mxCell id="x_Q-YRtAwNlrOQmXZMiU-2" value="" style="points=[];perimeter=orthogonalPerimeter;rounded=0;shadow=0;strokeWidth=1;" parent="x_Q-YRtAwNlrOQmXZMiU-1" vertex="1">
          <mxGeometry x="45" y="70" width="10" height="190" as="geometry" />
        </mxCell>
        <mxCell id="x_Q-YRtAwNlrOQmXZMiU-3" value="dispatch" style="verticalAlign=bottom;startArrow=oval;endArrow=block;startSize=8;shadow=0;strokeWidth=1;" parent="x_Q-YRtAwNlrOQmXZMiU-1" target="x_Q-YRtAwNlrOQmXZMiU-2" edge="1">
          <mxGeometry relative="1" as="geometry">
            <mxPoint x="-15" y="70" as="sourcePoint" />
          </mxGeometry>
        </mxCell>
        <mxCell id="x_Q-YRtAwNlrOQmXZMiU-4" value="" style="points=[];perimeter=orthogonalPerimeter;rounded=0;shadow=0;strokeWidth=1;" parent="x_Q-YRtAwNlrOQmXZMiU-1" vertex="1">
          <mxGeometry x="50" y="120" width="10" height="80" as="geometry" />
        </mxCell>
        <mxCell id="x_Q-YRtAwNlrOQmXZMiU-5" value="" style="line;strokeWidth=1;fillColor=none;align=left;verticalAlign=middle;spacingTop=-1;spacingLeft=3;spacingRight=3;rotatable=0;labelPosition=right;points=[];portConstraint=eastwest;" parent="x_Q-YRtAwNlrOQmXZMiU-1" vertex="1">
          <mxGeometry x="60" y="210" width="160" height="8" as="geometry" />
        </mxCell>
        <mxCell id="x_Q-YRtAwNlrOQmXZMiU-6" value="" style="line;strokeWidth=1;fillColor=none;align=left;verticalAlign=middle;spacingTop=-1;spacingLeft=3;spacingRight=3;rotatable=0;labelPosition=right;points=[];portConstraint=eastwest;" parent="x_Q-YRtAwNlrOQmXZMiU-1" vertex="1">
          <mxGeometry x="60" y="252" width="40" height="8" as="geometry" />
        </mxCell>
        <mxCell id="x_Q-YRtAwNlrOQmXZMiU-7" value="dispatch" style="html=1;verticalAlign=bottom;endArrow=block;" parent="x_Q-YRtAwNlrOQmXZMiU-1" target="x_Q-YRtAwNlrOQmXZMiU-8" edge="1">
          <mxGeometry width="80" relative="1" as="geometry">
            <mxPoint x="60" y="250" as="sourcePoint" />
            <mxPoint x="140" y="250" as="targetPoint" />
          </mxGeometry>
        </mxCell>
        <mxCell id="x_Q-YRtAwNlrOQmXZMiU-8" value=":Object" style="shape=umlLifeline;perimeter=lifelinePerimeter;container=1;collapsible=0;recursiveResize=0;rounded=0;shadow=0;strokeWidth=1;fillColor=#ffe6cc;strokeColor=#d79b00;" parent="1" vertex="1">
          <mxGeometry x="300" y="80" width="100" height="300" as="geometry" />
        </mxCell>
        <mxCell id="x_Q-YRtAwNlrOQmXZMiU-9" value="" style="points=[];perimeter=orthogonalPerimeter;rounded=0;shadow=0;strokeWidth=1;" parent="x_Q-YRtAwNlrOQmXZMiU-8" vertex="1">
          <mxGeometry x="45" y="80" width="10" height="160" as="geometry" />
        </mxCell>
        <mxCell id="x_Q-YRtAwNlrOQmXZMiU-10" value="return" style="verticalAlign=bottom;endArrow=open;dashed=1;endSize=8;exitX=0;exitY=0.95;shadow=0;strokeWidth=1;" parent="1" source="x_Q-YRtAwNlrOQmXZMiU-9" target="x_Q-YRtAwNlrOQmXZMiU-2" edge="1">
          <mxGeometry relative="1" as="geometry">
            <mxPoint x="275" y="236" as="targetPoint" />
          </mxGeometry>
        </mxCell>
        <mxCell id="x_Q-YRtAwNlrOQmXZMiU-11" value="dispatch" style="verticalAlign=bottom;endArrow=block;entryX=0;entryY=0;shadow=0;strokeWidth=1;" parent="1" source="x_Q-YRtAwNlrOQmXZMiU-2" target="x_Q-YRtAwNlrOQmXZMiU-9" edge="1">
          <mxGeometry y="10" relative="1" as="geometry">
            <mxPoint x="275" y="160" as="sourcePoint" />
            <Array as="points">
              <mxPoint x="270" y="160" />
            </Array>
            <mxPoint as="offset" />
          </mxGeometry>
        </mxCell>
        <mxCell id="x_Q-YRtAwNlrOQmXZMiU-12" value="callback" style="verticalAlign=bottom;endArrow=block;entryX=1;entryY=0;shadow=0;strokeWidth=1;" parent="1" source="x_Q-YRtAwNlrOQmXZMiU-9" target="x_Q-YRtAwNlrOQmXZMiU-4" edge="1">
          <mxGeometry relative="1" as="geometry">
            <mxPoint x="240" y="200" as="sourcePoint" />
          </mxGeometry>
        </mxCell>
        <mxCell id="x_Q-YRtAwNlrOQmXZMiU-13" value="return" style="verticalAlign=bottom;endArrow=open;dashed=1;endSize=8;exitX=1;exitY=0.95;shadow=0;strokeWidth=1;" parent="1" source="x_Q-YRtAwNlrOQmXZMiU-4" target="x_Q-YRtAwNlrOQmXZMiU-9" edge="1">
          <mxGeometry relative="1" as="geometry">
            <mxPoint x="240" y="257" as="targetPoint" />
          </mxGeometry>
        </mxCell>
        <mxCell id="x_Q-YRtAwNlrOQmXZMiU-14" value=":Object" style="shape=umlLifeline;perimeter=lifelinePerimeter;whiteSpace=wrap;html=1;container=1;collapsible=0;recursiveResize=0;outlineConnect=0;" parent="1" vertex="1">
          <mxGeometry x="200" y="400" width="100" height="300" as="geometry" />
        </mxCell>
        <mxCell id="x_Q-YRtAwNlrOQmXZMiU-15" style="edgeStyle=orthogonalEdgeStyle;rounded=0;orthogonalLoop=1;jettySize=auto;html=1;" parent="1" source="x_Q-YRtAwNlrOQmXZMiU-16" edge="1">
          <mxGeometry relative="1" as="geometry">
            <mxPoint x="505" y="660" as="targetPoint" />
          </mxGeometry>
        </mxCell>
        <mxCell id="x_Q-YRtAwNlrOQmXZMiU-16" value="" style="html=1;points=[];perimeter=orthogonalPerimeter;" parent="1" vertex="1">
          <mxGeometry x="500" y="440" width="10" height="80" as="geometry" />
        </mxCell>
        <mxCell id="x_Q-YRtAwNlrOQmXZMiU-17" value="dispatch" style="html=1;verticalAlign=bottom;startArrow=oval;endArrow=block;startSize=8;" parent="1" target="x_Q-YRtAwNlrOQmXZMiU-16" edge="1">
          <mxGeometry relative="1" as="geometry">
            <mxPoint x="440" y="440" as="sourcePoint" />
          </mxGeometry>
        </mxCell>
        <mxCell id="x_Q-YRtAwNlrOQmXZMiU-18" value="Activity" style="rounded=1;whiteSpace=wrap;html=1;arcSize=40;fontColor=#000000;fillColor=#ffffc0;strokeColor=#ff0000;" parent="1" vertex="1">
          <mxGeometry x="520" y="130" width="120" height="40" as="geometry" />
        </mxCell>
        <mxCell id="x_Q-YRtAwNlrOQmXZMiU-19" value="" style="edgeStyle=orthogonalEdgeStyle;html=1;verticalAlign=bottom;endArrow=open;endSize=8;strokeColor=#ff0000;" parent="1" source="x_Q-YRtAwNlrOQmXZMiU-18" edge="1">
          <mxGeometry relative="1" as="geometry">
            <mxPoint x="620" y="230" as="targetPoint" />
          </mxGeometry>
        </mxCell>
        <mxCell id="x_Q-YRtAwNlrOQmXZMiU-20" value="" style="html=1;points=[];perimeter=orthogonalPerimeter;" parent="1" vertex="1">
          <mxGeometry x="480" y="240" width="10" height="80" as="geometry" />
        </mxCell>
        <mxCell id="x_Q-YRtAwNlrOQmXZMiU-21" value="Title" style="text;align=center;fontStyle=1;verticalAlign=middle;spacingLeft=3;spacingRight=3;strokeColor=none;rotatable=0;points=[[0,0.5],[1,0.5]];portConstraint=eastwest;" parent="1" vertex="1">
          <mxGeometry x="120" y="354" width="80" height="26" as="geometry" />
        </mxCell>
        <mxCell id="x_Q-YRtAwNlrOQmXZMiU-22" value="" style="rounded=1;whiteSpace=wrap;html=1;strokeWidth=2;fillWeight=4;hachureGap=8;hachureAngle=45;fillColor=#f8cecc;sketch=1;strokeColor=#b85450;" parent="1" vertex="1">
          <mxGeometry x="700" y="250" width="120" height="60" as="geometry" />
        </mxCell>
        <mxCell id="x_Q-YRtAwNlrOQmXZMiU-23" value="" style="ellipse;whiteSpace=wrap;html=1;strokeWidth=2;fillWeight=2;hachureGap=8;fillColor=#990000;fillStyle=dots;sketch=1;" parent="1" vertex="1">
          <mxGeometry x="690" y="380" width="120" height="60" as="geometry" />
        </mxCell>
        <mxCell id="x_Q-YRtAwNlrOQmXZMiU-24" value="" style="rhombus;whiteSpace=wrap;html=1;strokeWidth=2;fillWeight=-1;hachureGap=8;fillStyle=cross-hatch;fillColor=#006600;sketch=1;" parent="1" vertex="1">
          <mxGeometry x="700" y="60" width="120" height="60" as="geometry" />
        </mxCell>
      </root>
    </mxGraphModel>
  </diagram>
</mxfile>
